<svg width="49px" height="48px" viewBox="0 0 49 48"> <g id="Symbols" stroke="none" stroke-width="1" fill="none" fill-rule="evenodd"> <g id="Nav---Closed" transform="translate(-25.000000, -49.000000)"> <g id="Group"> <g class="nav-logo" id="Logotype_Wide_White" transform="translate(26.000000, 50.000000)"> <path class="nav-logo--red-circle" id="Combined-Shape" fill="#DC0532" d="M9.17966635,30.0406154 L9.56788288,30.0425165 L10.0746097,30.0505854 C11.8976015,30.0897285 13.3249284,30.2315733 14.0070147,30.3959869 L14.0920199,30.4176325 C15.9550821,30.8310462 17.0499033,32.5317076 17.3759669,35.7115796 C17.421299,36.1546311 17.5125152,36.5862775 17.6462412,36.9997208 C14.0372836,35.7860993 11.0290771,33.2816628 9.17966635,30.0406154 Z M38,22.5219452 C38,24.8764394 37.4633728,27.1065817 36.5048619,29.0985562 L22.8887809,29.0982804 C21.4714611,29.0982804 20.4290638,28.6068104 19.6951258,27.6106167 C18.9069071,26.5439546 18.5258503,25.0127033 18.5258503,22.6824582 C18.5258503,20.3532898 18.906794,18.8221922 19.6950709,17.7525482 C20.429007,16.7579041 21.4717853,16.266636 22.8887809,16.266636 L36.6548851,16.2662109 C37.5191901,18.175613 38,20.2930227 38,22.5219452 Z M17.3957418,9.48288992 L17.3759518,9.65348456 C17.0584673,12.7488681 16.0120127,14.4429717 14.2651628,14.9051463 L14.1219921,14.9399237 C13.3389138,15.1503878 11.4505109,15.3250197 9.06442966,15.3250197 L8.9998473,15.3270076 C10.8521581,11.8887765 13.9907534,9.23552253 17.7779547,7.99971478 C17.5914736,8.47039474 17.4625214,8.96824043 17.3957418,9.48288992 Z"></path> <path class="nav-logo--helmet" id="Fill-3" fill="#FFFFFF" d="M23.007326,0.907220188 C34.3914835,0.907220188 43.7692308,9.51757284 44.9711538,20.5813565 C43.8630952,20.8308191 43.0338828,21.8144802 43.0338828,23.0022886 C43.0338828,24.1846044 43.8630952,25.1650613 44.9711538,25.4172703 C43.7692308,36.4769344 34.3978938,45.094153 23.007326,45.094153 C10.8003663,45.094153 0.908424908,35.2039882 0.908424908,23.0022886 C0.908424908,10.7983004 10.8003663,0.907220188 23.007326,0.907220188 M23.007326,46 C34.889652,46 44.6643773,36.9955421 45.882326,25.4447341 C47.0833333,25.2653041 48,24.2431938 48,23.0022886 C48,21.7554331 47.0833333,20.7351536 45.882326,20.5548082 C44.6625458,9.0030847 34.889652,0 23.007326,0 C10.2994505,0 0,10.2989174 0,23.0022886 C0,35.7001672 10.2994505,46 23.007326,46"></path> <path class="nav-logo--client" id="Fill-8" fill="#FFFFFF" d="M38.5489884,29.5221433 L22.3894067,29.5221433 C20.7813139,29.5221433 19.5478518,28.9396385 18.6917481,27.7755326 C17.8347352,26.6136862 17.4060014,24.9872821 17.4060014,22.5 C17.4060014,20.0136217 17.8347352,18.3876695 18.6917481,17.2226598 C19.5478518,16.0603615 20.7813139,15.4778567 22.3894067,15.4778567 L38.5489884,15.4778567 C38.7062969,15.4778567 38.8536031,15.4724338 39,15.4647515 C36.254376,9.30393802 30.0111389,5 22.7472153,5 C19.4846556,5 17.8270061,7.5564235 17.611048,9.67088444 C17.2623323,13.0768883 16.0152307,15.0151065 13.8729257,15.4909619 C13.2841555,15.6500323 11.5692203,15.8881859 8.72948397,15.8881859 C5.82655149,15.8881859 5,20.6571336 5,22.5 C5,24.3428664 5.82655149,29.1118141 8.72948397,29.1118141 C11.5692203,29.1118141 13.2841555,29.3499677 13.8729257,29.5090381 C16.0152307,29.9844416 17.2623323,31.9222079 17.611048,35.3291156 C17.8270061,37.4435765 19.4846556,40 22.7472153,40 C30.0111389,40 36.254376,35.6942544 39,29.5352485 C38.8536031,29.5275662 38.7062969,29.5221433 38.5489884,29.5221433"></path> <circle class="nav-logo--circle" id="Oval" stroke="#FFFFFF" stroke-width="2" cx="23" cy="23" r="23"></circle> </g> </g> </g> </g> </svg>